
<svg id="Layer_1" data-name="Layer 1" xmlns="http://www.w3.org/2000/svg" viewBox="0 0 2814.7 1340.07"><defs><style>.cls-1{isolation:isolate;}.cls-2{fill:#353535;}.cls-3{fill:#4968a7;}.cls-4{fill:#4866a5;}.cls-5{fill:#4563a2;}.cls-6{fill:#42609f;}.cls-7{fill:#3f5d9c;}.cls-8{fill:#3c5a98;}.cls-9{fill:#385694;}.cls-10{fill:#355391;}.cls-11{fill:#324f8d;}.cls-12{fill:#2e4c89;}.cls-13{fill:#2b4986;}.cls-14{fill:#284682;}.cls-15{fill:#26437f;}.cls-16{fill:#24417c;}.cls-17{fill:#213d78;}.cls-18{fill:#1f3b75;}.cls-19{fill:#1d3971;}.cls-20{fill:#1c376e;}.cls-21{fill:#1b366c;}.cls-22{fill:#1b346a;}.cls-23{fill:#1a3368;}</style></defs><g class="cls-1"><path class="cls-2" d="M178.37,621.31H487.19v94.37H60.2V35.45H178.37Z" transform="translate(-60.2 -18.13)"/><path class="cls-2" d="M799.06,725q-108,0-175-67.94t-67-181V462q0-75.65,29.16-135.28t82-92.75Q721.1,200.91,786,200.8q103.28,0,159.58,65.92t56.3,186.41v45.76H671.58q5.16,62.58,41.82,99t92.24,36.45q78.08,0,127.08-63.08l61.16,58.43Q963.51,675,912.77,700,862.19,725,799.06,725ZM785.49,291.93q-46.77,0-75.43,32.7T673.4,415.76H889.68v-8.4q-3.79-57-30.37-86.17T785.49,291.93Z" transform="translate(-60.2 -18.13)"/><path class="cls-2" d="M1078.22,458.29q0-74.27,29.47-133.86t82.72-91.53q53.31-32.06,122.42-32,102.38,0,166.06,65.92t69,174.76l.5,26.63q0,74.73-28.76,133.66T1437.38,693q-53.48,32.21-123.54,32.2-106.92,0-171.22-71.28t-64.2-190v-5.67ZM1191.73,468q0,78.07,32.2,122.22t89.71,44.14q57.42,0,89.51-44.85t32-131.33q0-76.54-32.91-121.51-33-44.81-89.51-44.85-55.59,0-88.29,44.14Q1191.79,380.33,1191.73,468Z" transform="translate(-60.2 -18.13)"/><path class="cls-2" d="M1759.17,210.11l3.24,58.43q56-67.74,147.12-67.74,158,0,160.69,180.84v334H1956.71V388.12c0-32.1-6.88-55.79-20.75-71.28s-36.56-23.09-67.94-23.09q-68.65,0-102.37,62.17V715.68H1652.14V210.11Z" transform="translate(-60.2 -18.13)"/><path class="cls-2" d="M2195.78,78.89c0-17.42,5.57-31.9,16.6-43.44s26.84-17.32,47.39-17.32,36.45,5.77,47.69,17.32,16.81,26,16.81,43.44c0,17.11-5.57,31.39-16.81,42.73s-27.13,17-47.69,17-36.35-5.67-47.39-17S2195.78,96,2195.78,78.89Zm120.59,636.79h-113.5V210.11h113.5Z" transform="translate(-60.2 -18.13)"/><path class="cls-2" d="M2672.08,725q-108,0-175-67.94t-67-181V462q0-75.65,29.17-135.28t82-92.75q52.86-33.1,117.76-33.21,103.29,0,159.58,65.92t56.3,186.41v45.76H2544.6q5.18,62.58,41.82,99t92.25,36.45q78.06,0,127.07-63.08l61.16,58.43Q2836.53,675,2785.8,700T2672.08,725Zm-13.46-433.07q-46.78,0-75.44,32.7t-36.65,91.13h216.28v-8.4q-3.79-57-30.38-86.17T2658.62,291.93Z" transform="translate(-60.2 -18.13)"/></g><path id="Rechteck_1" data-name="Rechteck 1" class="cls-3" d="M99.1,751.7h0A38.88,38.88,0,0,1,138,790.6V832a38.88,38.88,0,0,1-38.9,38.9h0A38.88,38.88,0,0,1,60.2,832V790.5A38.86,38.86,0,0,1,99.1,751.7Z" transform="translate(-60.2 -18.13)"/><path id="Rechteck_2" data-name="Rechteck 2" class="cls-4" d="M233.8,751.7h0a38.88,38.88,0,0,1,38.9,38.9V938.3a38.88,38.88,0,0,1-38.9,38.9h0a38.88,38.88,0,0,1-38.9-38.9V790.6A38.94,38.94,0,0,1,233.8,751.7Z" transform="translate(-60.2 -18.13)"/><path id="Rechteck_3" data-name="Rechteck 3" class="cls-5" d="M375.1,751.7h0a37.56,37.56,0,0,1,37.6,37.6v233.3a37.56,37.56,0,0,1-37.6,37.6h0a37.56,37.56,0,0,1-37.6-37.6V789.3A37.56,37.56,0,0,1,375.1,751.7Z" transform="translate(-60.2 -18.13)"/><path id="Rechteck_4" data-name="Rechteck 4" class="cls-6" d="M509.9,751.7h0a37.56,37.56,0,0,1,37.6,37.6v365.4a37.56,37.56,0,0,1-37.6,37.6h0a37.56,37.56,0,0,1-37.6-37.6V789.3A37.56,37.56,0,0,1,509.9,751.7Z" transform="translate(-60.2 -18.13)"/><path id="Rechteck_5" data-name="Rechteck 5" class="cls-7" d="M645.9,751.7h0a38.88,38.88,0,0,1,38.9,38.9v528.7a38.88,38.88,0,0,1-38.9,38.9h0a38.88,38.88,0,0,1-38.9-38.9V790.6A38.88,38.88,0,0,1,645.9,751.7Z" transform="translate(-60.2 -18.13)"/><path id="Rechteck_6" data-name="Rechteck 6" class="cls-8" d="M780.7,751.7h0a38.88,38.88,0,0,1,38.9,38.9V1226a38.88,38.88,0,0,1-38.9,38.9h0a38.88,38.88,0,0,1-38.9-38.9V790.6A38.88,38.88,0,0,1,780.7,751.7Z" transform="translate(-60.2 -18.13)"/><path id="Rechteck_7" data-name="Rechteck 7" class="cls-9" d="M920.6,751.7h0a38.88,38.88,0,0,1,38.9,38.9v326.6a38.88,38.88,0,0,1-38.9,38.9h0a38.88,38.88,0,0,1-38.9-38.9V790.6A39,39,0,0,1,920.6,751.7Z" transform="translate(-60.2 -18.13)"/><path id="Rechteck_8" data-name="Rechteck 8" class="cls-10" d="M1055.4,751.7h0a38.88,38.88,0,0,1,38.9,38.9v347.3a38.88,38.88,0,0,1-38.9,38.9h0a38.88,38.88,0,0,1-38.9-38.9V790.6A38.94,38.94,0,0,1,1055.4,751.7Z" transform="translate(-60.2 -18.13)"/><path id="Rechteck_9" data-name="Rechteck 9" class="cls-11" d="M1191.5,751.7h0a37.56,37.56,0,0,1,37.6,37.6v399.1a37.56,37.56,0,0,1-37.6,37.6h0a37.56,37.56,0,0,1-37.6-37.6V789.3A37.56,37.56,0,0,1,1191.5,751.7Z" transform="translate(-60.2 -18.13)"/><path id="Rechteck_10" data-name="Rechteck 10" class="cls-12" d="M1332.7,751.7h0a38.88,38.88,0,0,1,38.9,38.9v370.6a38.88,38.88,0,0,1-38.9,38.9h0a38.88,38.88,0,0,1-38.9-38.9V790.6A39,39,0,0,1,1332.7,751.7Z" transform="translate(-60.2 -18.13)"/><path id="Rechteck_11" data-name="Rechteck 11" class="cls-13" d="M1467.5,751.7h0a38.88,38.88,0,0,1,38.9,38.9v406.9a38.88,38.88,0,0,1-38.9,38.9h0a38.88,38.88,0,0,1-38.9-38.9V790.6A38.88,38.88,0,0,1,1467.5,751.7Z" transform="translate(-60.2 -18.13)"/><path id="Rechteck_12" data-name="Rechteck 12" class="cls-14" d="M1602.3,751.7h0a38.88,38.88,0,0,1,38.9,38.9v362.9a38.88,38.88,0,0,1-38.9,38.9h0a38.88,38.88,0,0,1-38.9-38.9V790.6A38.88,38.88,0,0,1,1602.3,751.7Z" transform="translate(-60.2 -18.13)"/><path id="Rechteck_13" data-name="Rechteck 13" class="cls-15" d="M1737.1,751.7h0a38.88,38.88,0,0,1,38.9,38.9v282.5a38.88,38.88,0,0,1-38.9,38.9h0a38.88,38.88,0,0,1-38.9-38.9V790.6A38.88,38.88,0,0,1,1737.1,751.7Z" transform="translate(-60.2 -18.13)"/><path id="Rechteck_14" data-name="Rechteck 14" class="cls-16" d="M1879.6,751.7h0a38.88,38.88,0,0,1,38.9,38.9v230.7a38.88,38.88,0,0,1-38.9,38.9h0a38.88,38.88,0,0,1-38.9-38.9V790.6A38.88,38.88,0,0,1,1879.6,751.7Z" transform="translate(-60.2 -18.13)"/><path id="Rechteck_15" data-name="Rechteck 15" class="cls-17" d="M2014.4,751.7h0a38.88,38.88,0,0,1,38.9,38.9v217.7a38.88,38.88,0,0,1-38.9,38.9h0a38.88,38.88,0,0,1-38.9-38.9V790.6A38.88,38.88,0,0,1,2014.4,751.7Z" transform="translate(-60.2 -18.13)"/><path id="Rechteck_16" data-name="Rechteck 16" class="cls-18" d="M2149.2,751.7h0a38.88,38.88,0,0,1,38.9,38.9V977.2a38.88,38.88,0,0,1-38.9,38.9h0a38.88,38.88,0,0,1-38.9-38.9V790.6A38.88,38.88,0,0,1,2149.2,751.7Z" transform="translate(-60.2 -18.13)"/><path id="Rechteck_17" data-name="Rechteck 17" class="cls-19" d="M2289.1,751.7h0a38.88,38.88,0,0,1,38.9,38.9V948.7a38.88,38.88,0,0,1-38.9,38.9h0a38.88,38.88,0,0,1-38.9-38.9V790.6A38.88,38.88,0,0,1,2289.1,751.7Z" transform="translate(-60.2 -18.13)"/><path id="Rechteck_18" data-name="Rechteck 18" class="cls-20" d="M2425.2,751.7h0a37.56,37.56,0,0,1,37.6,37.6V890.4a37.56,37.56,0,0,1-37.6,37.6h0a37.56,37.56,0,0,1-37.6-37.6V789.3A37.56,37.56,0,0,1,2425.2,751.7Z" transform="translate(-60.2 -18.13)"/><path id="Rechteck_19" data-name="Rechteck 19" class="cls-21" d="M2560,751.7h0a37.56,37.56,0,0,1,37.6,37.6V890.4A37.56,37.56,0,0,1,2560,928h0a37.56,37.56,0,0,1-37.6-37.6V789.3A37.56,37.56,0,0,1,2560,751.7Z" transform="translate(-60.2 -18.13)"/><path id="Rechteck_20" data-name="Rechteck 20" class="cls-22" d="M2694.7,751.7h0a37.56,37.56,0,0,1,37.6,37.6v64.8a37.56,37.56,0,0,1-37.6,37.6h0a37.56,37.56,0,0,1-37.6-37.6V789.3A37.62,37.62,0,0,1,2694.7,751.7Z" transform="translate(-60.2 -18.13)"/><path id="Rechteck_21" data-name="Rechteck 21" class="cls-23" d="M2836,751.7h0a38.88,38.88,0,0,1,38.9,38.9v15.6a38.88,38.88,0,0,1-38.9,38.9h0a38.88,38.88,0,0,1-38.9-38.9V790.6A38.88,38.88,0,0,1,2836,751.7Z" transform="translate(-60.2 -18.13)"/></svg>
